<svg xmlns="http://www.w3.org/2000/svg" xmlns:xlink="http://www.w3.org/1999/xlink" width="160.009033203125" height="32.668701171875" viewBox="0 0 160.009033203125 32.668701171875" fill="none"><g opacity="1"  transform="translate(0.00506591796875 0)  rotate(0)"><g opacity="1"  transform="translate(-0.0006103515625 0)  rotate(0)"><path id="logo" fill-rule="evenodd" style="fill:#FFFFFF" opacity="1" d="M2.41,18.76c-0.9,6.39 4.37,12.4 11.77,13.43c1.02,0.15 2.03,0.18 3.02,0.13c-1.7,0.37 -3.5,0.46 -5.36,0.2c-7.4,-1.03 -12.66,-7.12 -11.74,-13.6c0.68,-4.75 4.49,-8.39 9.4,-9.59c1.95,-5.44 7.2,-9.33 13.36,-9.33c5.73,0 10.65,3.35 12.91,8.18c4.59,1.11 8.1,4.31 8.69,8.49c0.65,4.52 -2.31,8.87 -7.02,11.08c3.36,-2.47 5.28,-6.16 4.74,-9.98c-0.51,-3.61 -3.13,-6.52 -6.74,-8.04l-0.12,-0.06c-0.23,-0.39 -0.46,-0.76 -0.72,-1.13l-0.16,-0.23c0,0 -0.21,-0.29 -0.33,-0.44l-0.04,-0.05c-2.54,-3.17 -6.47,-5.2 -10.87,-5.2c-4.9,0 -9.21,2.51 -11.68,6.31l-0.03,0.05l-0.2,0.32l-0.07,0.12l-0.51,0.19l-0.28,0.09l-0.41,0.16l0.04,-0.02l-0.05,0.02l-0.28,0.11l-0.2,0.09l-0.44,0.19c-3.55,1.65 -6.14,4.73 -6.68,8.51zM9.9348,24.9871c-0.4,-0.11 -1.43,-0.41 -3.15,-0.9c0.22,-4.2 3.86,-6.93 6.45,-7.27c1.05,-0.13 2.33,-0.33 3.33,-0.72c3.44,-1.31 5.21,-3.57 5.35,-6.78l3.33,0.96c-0.2,2.86 -1.71,4.98 -4.55,6.38c-0.86,0.44 -2.35,0.72 -3.3,0.92c-4.63,0.96 -7.09,3.44 -7.37,7.44zM23.5719,17.1731c2.62,-1.42 4.03,-3.51 4.26,-6.26l3.24,1.06c-0.5,2.8 -1.88,4.86 -4.14,6.2zM32.4565,19.8142c-0.86,0.44 -2.35,0.72 -3.3,0.92c-4.63,0.96 -7.09,3.44 -7.37,7.44h-0.02c0,0 -1.24,-0.36 -3.22,-0.93c0.22,-4.2 3.86,-6.93 6.45,-7.27c1.05,-0.13 2.33,-0.33 3.33,-0.72c3.44,-1.31 5.21,-3.57 5.35,-6.78l3.33,0.96c-0.2,2.86 -1.71,4.98 -4.55,6.38zM19.3567,18.353c0,0 0.15,-0.01 0.22,-0.02l3.24,0.96c-4.3,1.14 -6.64,3.58 -7.04,7.28c-0.17,-0.06 -1.19,-0.35 -3.07,-0.9c-0.12,-4.45 4.42,-7.16 6.65,-7.32z"></path><path id="形状" fill-rule="evenodd" style="fill:#FFFFFF" opacity="1" d="M68.5891,11.3334h-6.54c-2.52,0 -4.28,1 -5.29,3c-0.41,0.82 -0.66,1.82 -0.74,3c0.08,1.18 0.33,2.18 0.74,3c1.01,2 2.77,3 5.29,3h6.54v2h-6.54c-3.35,0 -5.7,-1.34 -7.03,-4c-0.57,-1.12 -0.91,-2.46 -1.01,-4c0.1,-1.54 0.44,-2.88 1.01,-4c1.33,-2.66 3.68,-4.00003 7.03,-4.00003h6.54zM83.5796,9.33337v2.00003h-9.55c-1.55,0 -2.39,0.83 -2.51,2.5c0.12,1.67 0.96,2.5 2.51,2.5h5.54c1.4,0 2.49,0.42 3.27,1.26c0.73,0.77 1.13,1.85 1.25,3.24c-0.23,3 -1.74,4.5 -4.52,4.5h-9.56v-2h9.56c1.55,0 2.39,-0.83 2.51,-2.5c-0.12,-1.67 -0.96,-2.5 -2.51,-2.5h-5.54c-2.78,0 -4.3,-1.5 -4.52,-4.5c0.1,-1.39 0.52,-2.47 1.25,-3.24c0.77,-0.84003 1.87,-1.26003 3.27,-1.26003zM99.5904,11.3334h-6.54c-2.52,0 -4.28,1 -5.29,3c-0.41,0.82 -0.66,1.82 -0.74,3c0.08,1.18 0.33,2.18 0.74,3c1.01,2 2.77,3 5.29,3h6.54v2h-6.54c-3.35,0 -5.7,-1.34 -7.03,-4c-0.57,-1.12 -0.91,-2.46 -1.01,-4c0.1,-1.54 0.44,-2.88 1.01,-4c1.33,-2.66 3.68,-4.00003 7.03,-4.00003h6.54zM112.571,23.3334v2h-12.06v-16.00003h2.01v14.00003zM117.138,10.3334c1.06,-0.56003 2.32,-0.90003 3.78,-1.00003c1.44,0.1 2.7,0.44 3.76,1.00003c2.52,1.34 3.78,3.66 3.78,7c0,3.34 -1.26,5.66 -3.78,7c-1.06,0.56 -2.32,0.9 -3.76,1c-1.46,-0.1 -2.72,-0.44 -3.78,-1c-2.5,-1.34 -3.76,-3.66 -3.76,-7c0,-3.34 1.26,-5.66 3.76,-7zM144.481,17.3334c0,3.34 -1.26,5.66 -3.78,7c-1.06,0.56 -2.32,0.9 -3.76,1c-1.46,-0.1 -2.72,-0.44 -3.78,-1c-2.5,-1.34 -3.76,-3.66 -3.76,-7v-8.00003h2.01v8.00003c0,1.82 0.48,3.23 1.44,4.26c0.96,1.03 2.32,1.6 4.09,1.74c1.07,-0.08 1.99,-0.33 2.76,-0.74c1.84,-1 2.77,-2.76 2.77,-5.26v-8.00003h2.01zM151.965,25.3334h-6.54v-16.00003h6.54c3.35,0 5.69,1.34003 7.03,4.00003c0.57,1.12 0.89,2.46 1.01,4c-0.12,1.54 -0.44,2.88 -1.01,4c-1.34,2.66 -3.68,4 -7.03,4zM120.918,11.3334c-1.07,0.08 -2,0.34 -2.78,0.76c-1.83,1 -2.75,2.74 -2.75,5.24c0,1.82 0.48,3.23 1.44,4.26c0.96,1.03 2.32,1.6 4.09,1.74c1.07,-0.08 1.99,-0.33 2.75,-0.74c1.86,-1 2.78,-2.76 2.78,-5.26c0,-2.48 -0.92,-4.22 -2.78,-5.24c-0.78,-0.42 -1.7,-0.68 -2.75,-0.76zM151.955,11.3334h-4.52v12h4.52c2.5,0 4.26,-1 5.27,-3c0.43,-0.86 0.68,-1.86 0.76,-3c-0.08,-1.14 -0.33,-2.14 -0.76,-3c-1.01,-2 -2.76,-3 -5.27,-3z"></path></g></g></svg>