<svg xmlns="http://www.w3.org/2000/svg" xmlns:xlink="http://www.w3.org/1999/xlink" width="20.929931640625" height="16.689697265625" viewBox="0 0 20.929931640625 16.689697265625" fill="none"><g opacity="1"  transform="translate(0 0)  rotate(0)"><path id="路径 1" fill-rule="evenodd" style="fill:#FFC336" opacity="1" d="M20.93 15.8641L20.93 2.48406C20.93 2.03406 20.52 1.66406 20.01 1.66406L0.92 1.66406C0.41 1.66406 0 2.03406 0 2.48406L0 15.8641C0 16.3241 0.41 16.6841 0.92 16.6841L20.01 16.6841C20.52 16.6841 20.93 16.3241 20.93 15.8641Z"></path><path id="路径 2" fill-rule="evenodd" style="fill:#FFAD0D" opacity="1" d="M8.98 0.66C8.86 0.27 8.5 0 8.09 0L0.92 0C0.41 0 0 0.41 0 0.92L0 5.63L10.48 5.63L8.98 0.66Z"></path><path id="路径 3" fill-rule="evenodd" fill="url(#linear_0)" opacity="1" d="M20.93 15.7697L20.93 3.84969C20.93 3.33969 20.52 2.92969 20.01 2.92969L0.92 2.92969C0.41 2.92969 0 3.33969 0 3.84969L0 15.7697C0 16.2797 0.41 16.6897 0.92 16.6897L20.01 16.6897C20.52 16.6897 20.93 16.2697 20.93 15.7697Z"></path></g><defs><linearGradient id="linear_0" x1="50%" y1="0%" x2="51%" y2="100%" gradientUnits="objectBoundingBox"><stop offset="0" stop-color="#FFDD54" stop-opacity="1" /><stop offset="1" stop-color="#FFD45E" stop-opacity="1" /></linearGradient></defs></svg>