<svg xmlns="http://www.w3.org/2000/svg" xmlns:xlink="http://www.w3.org/1999/xlink" width="17" height="17" viewBox="0 0 17 17" fill="none"><g opacity="1"  transform="translate(0 0)  rotate(0)"><mask id="bg-mask-0" fill="white"><use transform="translate(0 0)  rotate(NaN)" xlink:href="#path_0"></use></mask><g mask="url(#bg-mask-0)" ><path id="分组 1" fill-rule="evenodd" style="fill:#409EFF" opacity="1" d="M15.3374,2.05575c0,0.29 -0.24,0.53 -0.53,0.53h-5.98001v1.69h6.03001c0.27,0 0.48,0.26 0.48,0.58v3.91c0,0.32 -0.21,0.58 -0.48,0.58h-12.95001c-0.27,0 -0.49,-0.26 -0.49,-0.58v-3.91c0,-0.32 0.22,-0.58 0.49,-0.58h6.02v-1.69h-5.97c-0.3,0 -0.54,-0.23 -0.54,-0.53c0,-0.3 0.24,-0.54 0.54,-0.54h12.85001c0.3,0 0.53,0.24 0.53,0.54zM2.31539,8.27535h12.13001v-2.93h-12.13001zM11.025,6.27505h1.85v1.07h-1.85zM1.41669,11.1908c0,-0.32 0.22,-0.58 0.49,-0.58h12.95001c0.27,0 0.48,0.26 0.49,0.58v3.91c-0.01,0.32 -0.22,0.58 -0.49,0.58h-12.95001c-0.27,0 -0.49,-0.26 -0.49,-0.58zM2.31629,14.6675h12.04001v-2.98h-12.04001zM11.0217,12.679h1.85v1.07h-1.85z"></path><path  id="分组 1" style="fill:#409EFF; opacity:1;" d="M14.8074,1.69075h-12.85001c-0.20159,0 -0.365,0.16341 -0.365,0.365c0,0.20158 0.16341,0.355 0.365,0.355h6.145v2.04h-6.195c-0.21,0 -0.315,0.135 -0.315,0.405v3.91c0,0.27 0.105,0.405 0.315,0.405h12.95001c0.20333,0 0.305,-0.135 0.305,-0.405v-3.91c0,-0.27 -0.10167,-0.405 -0.305,-0.405h-6.20501v-2.04h6.15501c0.196,0 0.355,-0.15894 0.355,-0.355c0,-0.10322 -0.0343,-0.19001 -0.1029,-0.26038c-0.06793,-0.06975 -0.15197,-0.10462 -0.2521,-0.10462zM14.8074,1.34075c0.47,0 0.705,0.23833 0.705,0.715c0,0.38936 -0.3157,0.705 -0.705,0.705h-5.98001v-0.175h0.175v1.69h-0.175v-0.175h6.03001c0.43667,0 0.655,0.25167 0.655,0.755v3.91c0,0.20249 -0.0595,0.37619 -0.1785,0.52108c-0.12813,0.15595 -0.28697,0.23392 -0.4765,0.23392h-12.95001c-0.44333,0 -0.665,-0.25167 -0.665,-0.755v-3.91c0,-0.20265 0.0617,-0.37698 0.18509,-0.52297c0.13075,-0.15469 0.29072,-0.23203 0.47991,-0.23203h6.02v0.175h-0.175v-1.69h0.175v0.175h-5.97c-0.39489,0 -0.715,-0.31012 -0.715,-0.705c0,-0.39489 0.32011,-0.715 0.715,-0.715zM2.31539,5.17035h12.30501v3.28h-12.48001v-3.28zM2.31539,5.52035v-0.175h0.175v2.93h-0.175v-0.175h12.13001v0.175h-0.175v-2.93h0.175v0.175zM11.025,7.17005h1.85v0.175h-0.175v-1.07h0.175v0.175h-1.85v-0.175h0.175v1.07h-0.175zM10.85,7.52005v-1.42h2.2v1.42h-2.025zM1.24169,11.1908M1.24169,11.1908c0,-0.50333 0.22167,-0.755 0.665,-0.755h12.95001c0.42767,0 0.6493,0.24987 0.6649,0.7496l0.0001,0.0027v3.9155l-0.0001,0.0027l0.0001,-0.0027l-0.0001,0.0027c-0.0156,0.49967 -0.23723,0.7495 -0.6649,0.7495h-12.95001c-0.18919,0 -0.34916,-0.07733 -0.47991,-0.232c-0.12339,-0.146 -0.18509,-0.32033 -0.18509,-0.523zM1.59169,11.1908v3.91c0,0.27 0.105,0.405 0.315,0.405h12.95001c0.20147,0 0.3065,-0.1368 0.3151,-0.4104l0.1749,0.0054l-0.1749,-0.0054l0.1749,0.0054h-0.175v-3.91h0.175l-0.1749,0.0055c-0.0086,-0.27367 -0.11363,-0.4105 -0.3151,-0.4105h-12.95001c-0.21,0 -0.315,0.135 -0.315,0.405zM2.31629,11.5125h12.21501v3.33h-12.39001v-3.33zM2.31629,11.8625v-0.175h0.175v2.98h-0.175v-0.175h12.04001v0.175h-0.175v-2.98h0.175v0.175zM11.0217,13.574h1.85v0.175h-0.175v-1.07h0.175v0.175h-1.85v-0.175h0.175v1.07h-0.175zM10.8467,13.924v-1.42h2.2v1.42h-2.025z"></path></g></g><defs><rect id="path_0" x="0" y="0" width="17" height="17" /></defs></svg>