<svg xmlns="http://www.w3.org/2000/svg" xmlns:xlink="http://www.w3.org/1999/xlink" width="24" height="24" viewBox="0 0 24 24" fill="none"><g opacity="1"  transform="translate(0 0)  rotate(0)"><mask id="bg-mask-0" fill="white"><use transform="translate(0 0)  rotate(NaN)" xlink:href="#path_0"></use></mask><g mask="url(#bg-mask-0)" ><g opacity="1"  transform="translate(3 4.5)  rotate(0)"><path  id="路径 1" style="fill:#606266; opacity:1;" d="M-0.87313,15.0817l2.25,-8.99998c0.10016,-0.40065 0.46015,-0.68172 0.87313,-0.68172h13.73v0.9h-0.9v-2.7v0h-6.08c-0.2671,0 -0.5204,-0.11864 -0.6914,-0.32383l-2.25,-2.7l0.6914,-0.57617v0.9h-5.85v0v14.4h-0.9zM0.87313,15.5183c-0.25741,1.0296 -1.77313,0.843 -1.77313,-0.2183v-14.4c0,-0.99411 0.80589,-1.8 1.8,-1.8h5.85c0.2671,0 0.5204,0.11864 0.6914,0.32383l2.25,2.7l-0.6914,0.57617v-0.9h6.08c0.49333,0 0.9159,0.17456 1.2677,0.52367c0.35487,0.35215 0.5323,0.7776 0.5323,1.27633v2.7c0,0.49706 -0.4029,0.9 -0.9,0.9h-13.73v-0.9l0.87313,0.21828z"></path><path  id="路径 2" style="fill:#606266; opacity:1;" d="M18,7.19999h-15.83v-0.9l0.87493,0.21095l-2.17,8.99996l-0.87493,-0.2109v-0.9h16.2v0.9l-0.8825,-0.1765l1.8,-9.00002l0.8825,0.17651zM18,5.39999c0.5679,0 0.9939,0.51959 0.8825,1.0765l-1.8,9.00001c-0.0841,0.4207 -0.4535,0.7235 -0.8825,0.7235h-16.2c-0.5824,0 -1.01144,-0.5448 -0.87493,-1.111l2.17,-8.99997c0.09746,-0.40421 0.45913,-0.68904 0.87493,-0.68904z"></path></g></g></g><defs><rect id="path_0" x="0" y="0" width="24" height="24" /></defs></svg>